<svg id="visual" viewBox="0 0 900 600" width="900" height="600" xmlns="http://www.w3.org/2000/svg" xmlns:xlink="http://www.w3.org/1999/xlink" version="1.1"><rect x="0" y="0" width="900" height="600" fill="#f1f5f9"></rect><path d="M0 369L21.5 374.3C43 379.7 86 390.3 128.8 391.7C171.7 393 214.3 385 257.2 388C300 391 343 405 385.8 407.3C428.7 409.7 471.3 400.3 514.2 396.2C557 392 600 393 642.8 395.8C685.7 398.7 728.3 403.3 771.2 402.8C814 402.3 857 396.7 878.5 393.8L900 391L900 601L878.5 601C857 601 814 601 771.2 601C728.3 601 685.7 601 642.8 601C600 601 557 601 514.2 601C471.3 601 428.7 601 385.8 601C343 601 300 601 257.2 601C214.3 601 171.7 601 128.8 601C86 601 43 601 21.5 601L0 601Z" fill="#5cbfb5"></path><path d="M0 435L21.5 430.5C43 426 86 417 128.8 415.8C171.7 414.7 214.3 421.3 257.2 426.3C300 431.3 343 434.7 385.8 429C428.7 423.3 471.3 408.7 514.2 406C557 403.3 600 412.7 642.8 417.8C685.7 423 728.3 424 771.2 421.7C814 419.3 857 413.7 878.5 410.8L900 408L900 601L878.5 601C857 601 814 601 771.2 601C728.3 601 685.7 601 642.8 601C600 601 557 601 514.2 601C471.3 601 428.7 601 385.8 601C343 601 300 601 257.2 601C214.3 601 171.7 601 128.8 601C86 601 43 601 21.5 601L0 601Z" fill="#42b2a7"></path><path d="M0 488L21.5 489.2C43 490.3 86 492.7 128.8 486C171.7 479.3 214.3 463.7 257.2 465.3C300 467 343 486 385.8 496.3C428.7 506.7 471.3 508.3 514.2 497.8C557 487.3 600 464.7 642.8 461.2C685.7 457.7 728.3 473.3 771.2 475.2C814 477 857 465 878.5 459L900 453L900 601L878.5 601C857 601 814 601 771.2 601C728.3 601 685.7 601 642.8 601C600 601 557 601 514.2 601C471.3 601 428.7 601 385.8 601C343 601 300 601 257.2 601C214.3 601 171.7 601 128.8 601C86 601 43 601 21.5 601L0 601Z" fill="#1da699"></path><path d="M0 510L21.5 514.2C43 518.3 86 526.7 128.8 523.2C171.7 519.7 214.3 504.3 257.2 503.8C300 503.3 343 517.7 385.8 518.7C428.7 519.7 471.3 507.3 514.2 505.2C557 503 600 511 642.8 516.8C685.7 522.7 728.3 526.3 771.2 530.2C814 534 857 538 878.5 540L900 542L900 601L878.5 601C857 601 814 601 771.2 601C728.3 601 685.7 601 642.8 601C600 601 557 601 514.2 601C471.3 601 428.7 601 385.8 601C343 601 300 601 257.2 601C214.3 601 171.7 601 128.8 601C86 601 43 601 21.5 601L0 601Z" fill="#1a9084"></path><path d="M0 547L21.5 549.3C43 551.7 86 556.3 128.8 552.8C171.7 549.3 214.3 537.7 257.2 531.8C300 526 343 526 385.8 528.8C428.7 531.7 471.3 537.3 514.2 539.5C557 541.7 600 540.3 642.8 537.5C685.7 534.7 728.3 530.3 771.2 532.2C814 534 857 542 878.5 546L900 550L900 601L878.5 601C857 601 814 601 771.2 601C728.3 601 685.7 601 642.8 601C600 601 557 601 514.2 601C471.3 601 428.7 601 385.8 601C343 601 300 601 257.2 601C214.3 601 171.7 601 128.8 601C86 601 43 601 21.5 601L0 601Z" fill="#167a70"></path></svg>